<svg viewBox="0 0 24 24" fill="white" xmlns="http://www.w3.org/2000/svg">
<path d="M12.0002 0.600098C5.71265 0.600098 0.600098 5.71265 0.600098 12.0002C0.600098 18.2878 5.71265 23.4003 12.0002 23.4003C18.2878 23.4003 23.4003 18.2878 23.4003 12.0002C23.4003 5.71265 18.2878 0.600098 12.0002 0.600098ZM12.0002 1.8001C12.8762 1.8001 13.7257 1.91265 14.5382 2.12265L12.0002 11.5876L9.4622 2.12265C10.2747 1.91265 11.1242 1.8001 12.0002 1.8001ZM15.7007 2.6101L12.5252 12.4501L20.8877 15.4876C19.7252 10.3501 15.7007 2.6101 15.7007 2.6101ZM8.3002 2.6101C8.3002 2.6101 4.2752 10.3501 3.1127 15.4876L11.4752 12.4501L8.3002 2.6101ZM12.0002 13.5376L19.8377 16.3876C18.0377 19.9501 14.3627 22.2001 12.0002 22.2001C9.6377 22.2001 5.9627 19.9501 4.1627 16.3876L12.0002 13.5376Z"/>
</svg>
